<svg width="15" height="15" viewBox="0 0 15 15" fill="none" xmlns="http://www.w3.org/2000/svg">
<path fill-rule="evenodd" clip-rule="evenodd" d="M3.85463 2.14663C3.80814 2.10014 3.75295 2.06327 3.69221 2.03811C3.63148 2.01295 3.56638 2 3.50063 2C3.43489 2 3.36979 2.01295 3.30905 2.03811C3.24831 2.06327 3.19312 2.10014 3.14663 2.14663C3.10014 2.19312 3.06327 2.24831 3.03811 2.30905C3.01295 2.36979 3 2.43489 3 2.50063C3 2.56638 3.01295 2.63148 3.03811 2.69221C3.06327 2.75295 3.10014 2.80814 3.14663 2.85463L7.14663 6.85463C7.19308 6.90119 7.24825 6.93814 7.309 6.96334C7.36974 6.98855 7.43486 7.00152 7.50063 7.00152C7.5664 7.00152 7.63152 6.98855 7.69227 6.96334C7.75301 6.93814 7.80819 6.90119 7.85463 6.85463L11.8546 2.85463C11.9485 2.76075 12.0013 2.63341 12.0013 2.50063C12.0013 2.36786 11.9485 2.24052 11.8546 2.14663C11.7607 2.05274 11.6334 2 11.5006 2C11.3679 2 11.2405 2.05274 11.1466 2.14663L7.50063 5.79363L3.85463 2.14663ZM3.85463 8.14663C3.76075 8.05274 3.63341 8 3.50063 8C3.36786 8 3.24052 8.05274 3.14663 8.14663C3.05274 8.24052 3 8.36786 3 8.50063C3 8.63341 3.05274 8.76074 3.14663 8.85463L7.14663 12.8546C7.19308 12.9012 7.24825 12.9381 7.309 12.9633C7.36974 12.9886 7.43486 13.0015 7.50063 13.0015C7.5664 13.0015 7.63152 12.9886 7.69227 12.9633C7.75301 12.9381 7.80819 12.9012 7.85463 12.8546L11.8546 8.85463C11.9485 8.76074 12.0013 8.63341 12.0013 8.50063C12.0013 8.36786 11.9485 8.24052 11.8546 8.14663C11.7607 8.05274 11.6334 8 11.5006 8C11.3679 8 11.2405 8.05274 11.1466 8.14663L7.50063 11.7936L3.85463 8.14663Z" fill="black"/>
</svg>
