<svg width="24" height="24" viewBox="0 0 24 24" fill="none" xmlns="http://www.w3.org/2000/svg">
<path d="M23.834 8.10249C23.3155 11.355 21.6598 14.318 19.1615 16.4641C16.6632 18.6103 13.4845 19.8003 10.191 19.8225C9.52401 19.8491 8.85601 19.8089 8.19701 19.7025C6.81866 19.4686 5.56222 18.769 4.63736 17.7206C3.7125 16.6722 3.17516 15.3383 3.11501 13.9415C3.12096 12.3789 3.74301 10.8817 4.84613 9.77497C5.94925 8.66823 7.4444 8.04127 9.00697 8.03021C10.5695 8.01915 12.0734 8.62488 13.1921 9.71589C14.3108 10.8069 14.9539 12.2951 14.982 13.8575C15.007 14.8405 14.581 15.7035 13.705 15.7285C12.769 15.7285 12.331 15.0605 12.331 14.1615V11.6615C12.3318 11.2569 12.1723 10.8685 11.8875 10.5812C11.6026 10.2939 11.2156 10.1311 10.811 10.1285H8.71501C8.1055 10.1245 7.50471 10.2733 6.9675 10.5612C6.4303 10.8492 5.97381 11.2672 5.63975 11.777C5.30568 12.2868 5.10468 12.8722 5.05511 13.4797C5.00554 14.0872 5.10897 14.6975 5.35597 15.2547C5.60297 15.8119 5.98565 16.2984 6.46906 16.6696C6.95247 17.0409 7.5212 17.2851 8.1233 17.38C8.72539 17.4748 9.34165 17.4173 9.9158 17.2127C10.4899 17.008 11.0037 16.6628 11.41 16.2085L11.483 16.0985L11.557 16.2195C11.809 16.5619 12.1417 16.8368 12.5255 17.0196C12.9093 17.2024 13.3323 17.2876 13.757 17.2675C14.5139 17.2123 15.2193 16.8635 15.7228 16.2956C16.2263 15.7277 16.4879 14.9856 16.452 14.2275C16.4586 13.5767 16.3857 12.9276 16.235 12.2945C15.8474 10.5058 14.8111 8.92408 13.3261 7.85446C11.841 6.78485 10.0124 6.30318 8.19305 6.50238C6.37374 6.70159 4.69269 7.56755 3.47425 8.93318C2.25581 10.2988 1.58634 12.0673 1.59501 13.8975C1.61821 15.8375 2.39262 17.693 3.75546 19.074C5.11831 20.4549 6.96344 21.2537 8.90301 21.3025C8.90301 21.3025 9.45201 21.3525 10.07 21.3375C13.0781 21.3188 16.0183 20.4417 18.545 18.8095C18.581 18.7845 18.617 18.8345 18.593 18.8705C17.3629 20.1955 15.8587 21.2365 14.1852 21.921C12.5117 22.6054 10.7091 22.9168 8.90301 22.8335C7.72223 22.855 6.54934 22.637 5.45508 22.1928C4.36083 21.7486 3.36791 21.0874 2.5362 20.2489C1.7045 19.4105 1.05125 18.4123 0.615877 17.3145C0.180503 16.2167 -0.0279782 15.0421 0.0030111 13.8615C0.00366839 12.4541 0.332572 11.0662 0.963585 9.80817C1.5946 8.55013 2.51033 7.45661 3.63801 6.61449C5.15345 5.49838 6.98493 4.89384 8.86701 4.88849H11.68C12.7789 4.88736 13.8655 4.65757 14.8707 4.21374C15.876 3.76991 16.7778 3.12176 17.519 2.31049C17.5341 2.29261 17.555 2.28057 17.578 2.27649C17.6011 2.27127 17.6252 2.2736 17.6468 2.28315C17.6684 2.29269 17.6864 2.30894 17.698 2.32949C17.7108 2.34935 17.7161 2.37309 17.713 2.39649C17.5937 3.66058 17.1729 4.87761 16.486 5.94549C16.4751 5.96352 16.4702 5.98452 16.472 6.00549C16.4737 6.02669 16.4815 6.04694 16.4944 6.0638C16.5074 6.08066 16.525 6.09341 16.545 6.10049C16.5647 6.10837 16.5864 6.10978 16.607 6.10449C17.9056 5.81154 19.1172 5.21768 20.1443 4.37075C21.1713 3.52382 21.9851 2.4475 22.52 1.22849C22.5348 1.20746 22.5534 1.18946 22.575 1.17549C22.5975 1.16288 22.6228 1.15625 22.6485 1.15625C22.6743 1.15625 22.6996 1.16288 22.722 1.17549C22.7442 1.18825 22.7628 1.2065 22.776 1.22849C23.8782 3.33972 24.2503 5.75752 23.834 8.10249ZM8.89501 11.6295C8.46227 11.6295 8.03924 11.7578 7.67942 11.9982C7.31961 12.2387 7.03917 12.5804 6.87356 12.9802C6.70796 13.38 6.66463 13.8199 6.74905 14.2443C6.83348 14.6688 7.04186 15.0586 7.34786 15.3646C7.65386 15.6706 8.04372 15.879 8.46815 15.9634C8.89258 16.0479 9.33252 16.0045 9.73232 15.8389C10.1321 15.6733 10.4738 15.3929 10.7143 15.0331C10.9547 14.6733 11.083 14.2502 11.083 13.8175V11.7755C11.0806 11.7365 11.0641 11.6997 11.0364 11.6721C11.0088 11.6444 10.972 11.6279 10.933 11.6255L8.89501 11.6295Z" fill="black"/>
</svg>
