<svg width="24" height="24" viewBox="0 0 24 24" fill="none" xmlns="http://www.w3.org/2000/svg">
<path d="M14.9994 9.99922L10.9994 13.9992L8.99937 11.9992M13.2454 3.45822L14.4664 4.49822C14.7744 4.76022 15.1564 4.91822 15.5584 4.95122L17.1584 5.07922C17.6131 5.11553 18.0401 5.31259 18.3628 5.6351C18.6855 5.9576 18.8828 6.38447 18.9194 6.83922L19.0464 8.43922C19.0794 8.84222 19.2384 9.22522 19.5004 9.53222L20.5404 10.7522C20.8368 11.0997 20.9996 11.5415 20.9996 11.9982C20.9996 12.455 20.8368 12.8967 20.5404 13.2442L19.5004 14.4652C19.2384 14.7732 19.0794 15.1552 19.0474 15.5582L18.9194 17.1582C18.8831 17.613 18.686 18.04 18.3635 18.3627C18.041 18.6853 17.6141 18.8826 17.1594 18.9192L15.5594 19.0472C15.1565 19.0791 14.7741 19.2373 14.4664 19.4992L13.2454 20.5392C12.8979 20.8356 12.4561 20.9984 11.9994 20.9984C11.5426 20.9984 11.1009 20.8356 10.7534 20.5392L9.53337 19.4992C9.2254 19.2371 8.84253 19.0789 8.43937 19.0472L6.83937 18.9192C6.38446 18.8826 5.95746 18.6852 5.63494 18.3623C5.31241 18.0394 5.11545 17.6122 5.07937 17.1572L4.95137 15.5582C4.91898 15.1556 4.76046 14.7735 4.49837 14.4662L3.45837 13.2442C3.1625 12.8969 3 12.4555 3 11.9992C3 11.5429 3.1625 11.1016 3.45837 10.7542L4.49837 9.53222C4.76137 9.22422 4.91837 8.84222 4.95037 8.43922L5.07837 6.84022C5.11477 6.38497 5.31226 5.95762 5.63538 5.63486C5.9585 5.31211 6.38608 5.11511 6.84137 5.07922L8.43937 4.95222C8.8423 4.92004 9.2248 4.76151 9.53237 4.49922L10.7534 3.45922C11.1009 3.16282 11.5426 3 11.9994 3C12.4561 3 12.8979 3.16182 13.2454 3.45822Z" stroke="black" stroke-width="2" stroke-linecap="round" stroke-linejoin="round"/>
</svg>
