<svg width="24" height="24" viewBox="0 0 24 24" fill="none" xmlns="http://www.w3.org/2000/svg">
<g clip-path="url(#clip0_84_10)">
<path d="M7.5 0H10.078V1.078H8.578V2.156H10.078V3.234H7.5V0ZM10.593 0H13.172V0.938H11.672V1.125H13.172V3.281H10.593V2.297H12.093V2.109H10.593V0ZM13.688 0H16.265V0.938H14.765V1.125H16.265V3.281H13.688V2.297H15.188V2.109H13.688V0Z" fill="black"/>
<path fill-rule="evenodd" clip-rule="evenodd" d="M11.991 24.0018L5.047 22.0737L3 4.71875H21L18.954 22.0718L11.991 24.0018ZM7.047 12.5747L7.238 14.7028H14.615L14.368 17.4628L11.994 18.1048H11.992L9.622 17.4647L9.47 15.7677H7.333L7.631 19.1097L11.991 20.3198L16.358 19.1097L16.89 13.1458L16.942 12.5747L17.326 8.26575H6.664L6.858 10.3947H14.994L14.8 12.5747H7.047Z" fill="black"/>
</g>
<defs>
<clipPath id="clip0_84_10">
<rect width="24" height="24" fill="white"/>
</clipPath>
</defs>
</svg>
