<svg width="16" height="16" viewBox="0 0 16 16" fill="none" xmlns="http://www.w3.org/2000/svg">
<path d="M1.70358 0.929793C1.69103 0.929583 1.67849 0.929687 1.66595 0.930106C1.51945 0.935012 1.41864 0.984356 1.34992 1.05307C1.25829 1.1447 1.20114 1.29336 1.23779 1.53136C1.27445 1.76936 1.41539 2.08617 1.71504 2.43576C3.83673 4.91107 5.86926 7.29701 7.45576 9.05979C7.83929 9.48595 8.19617 9.87479 8.52217 10.2203C8.90014 9.22332 9.60248 8.52826 10.4879 8.19792C10.1496 7.8792 9.77111 7.53189 9.3567 7.15892C7.59395 5.57242 5.20795 3.53979 2.73267 1.41811C2.38311 1.11845 2.06626 0.977543 1.82826 0.940856C1.78699 0.934384 1.74534 0.930678 1.70358 0.929762V0.929793ZM10.9468 8.63729C9.99489 8.87564 9.28301 9.54932 8.95904 10.6754C9.13567 10.8562 9.30142 11.0218 9.45217 11.1662C9.68904 11.3932 9.89264 11.5727 10.0525 11.6961C10.108 11.1579 10.3664 10.6629 10.7289 10.2995C11.0602 9.96742 11.4944 9.73686 11.9515 9.70292C11.8306 9.55179 11.6659 9.36695 11.4631 9.15529C11.3119 8.99757 11.1376 8.82332 10.9468 8.63729ZM12.0515 10.2607C11.7266 10.265 11.3975 10.4257 11.1271 10.6968C10.7665 11.0582 10.5435 11.5984 10.6187 12.1249C10.7854 13.2919 11.3609 14.1815 12.1644 14.6636C12.8746 15.0897 13.7722 15.2058 14.7782 14.8818C14.0213 14.7565 13.3259 13.9223 13.272 13.299C13.6042 13.6994 14.0202 14.0661 14.4729 14.2912C14.1641 13.5856 14.1853 12.8708 14.1264 12.2812C14.0841 11.8586 14.0048 11.5005 13.7708 11.1824C13.5369 10.8642 13.1326 10.5636 12.3727 10.3103C12.2692 10.2758 12.1606 10.259 12.0515 10.2607Z" fill="black"/>
</svg>
