<svg width="24" height="24" viewBox="0 0 24 24" fill="none" xmlns="http://www.w3.org/2000/svg">
<path d="M17.7482 15.0037C17.7482 15.2026 17.6692 15.3934 17.5285 15.534C17.3879 15.6747 17.1971 15.7537 16.9982 15.7537H11.9982C11.7993 15.7537 11.6085 15.6747 11.4679 15.534C11.3272 15.3934 11.2482 15.2026 11.2482 15.0037C11.2482 14.8048 11.3272 14.614 11.4679 14.4734C11.6085 14.3327 11.7993 14.2537 11.9982 14.2537H16.9982C17.1971 14.2537 17.3879 14.3327 17.5285 14.4734C17.6692 14.614 17.7482 14.8048 17.7482 15.0037ZM7.4782 9.42771C7.40293 9.36186 7.31526 9.31173 7.22033 9.28027C7.1254 9.24881 7.02514 9.23665 6.92544 9.24451C6.82574 9.25236 6.72863 9.28008 6.6398 9.32603C6.55097 9.37197 6.47223 9.43522 6.40821 9.51205C6.34419 9.58888 6.29618 9.67773 6.267 9.77339C6.23783 9.86904 6.22808 9.96957 6.23832 10.069C6.24857 10.1685 6.27861 10.265 6.32668 10.3527C6.37474 10.4403 6.43986 10.5176 6.5182 10.5797L6.7522 10.7747C7.4112 11.3247 7.8422 11.6847 8.1182 11.9907C8.3802 12.2807 8.4052 12.4177 8.4052 12.5037C8.4052 12.5897 8.3802 12.7257 8.1182 13.0167C7.8412 13.3227 7.4112 13.6837 6.7522 14.2327L6.5182 14.4277C6.37084 14.5566 6.27974 14.7381 6.26435 14.9333C6.24896 15.1284 6.31052 15.3219 6.43587 15.4723C6.56121 15.6227 6.74041 15.7182 6.93517 15.7382C7.12993 15.7583 7.32482 15.7014 7.4782 15.5797L7.7552 15.3497C8.3602 14.8457 8.8752 14.4167 9.2312 14.0217C9.6092 13.6017 9.9052 13.1207 9.9052 12.5037C9.9052 11.8867 9.6092 11.4047 9.2312 10.9857C8.8752 10.5907 8.3602 10.1617 7.7552 9.65771L7.4782 9.42771Z" fill="black"/>
<path fill-rule="evenodd" clip-rule="evenodd" d="M11.943 1.25H12.057C14.366 1.25 16.175 1.25 17.587 1.44C19.031 1.634 20.171 2.04 21.066 2.934C21.961 3.829 22.366 4.969 22.56 6.414C22.75 7.825 22.75 9.634 22.75 11.943V12.057C22.75 14.366 22.75 16.175 22.56 17.587C22.366 19.031 21.96 20.171 21.066 21.066C20.171 21.961 19.031 22.366 17.586 22.56C16.175 22.75 14.366 22.75 12.057 22.75H11.943C9.634 22.75 7.825 22.75 6.413 22.56C4.969 22.366 3.829 21.96 2.934 21.066C2.039 20.171 1.634 19.031 1.44 17.586C1.25 16.175 1.25 14.366 1.25 12.057V11.943C1.25 9.634 1.25 7.825 1.44 6.413C1.634 4.969 2.04 3.829 2.934 2.934C3.829 2.039 4.969 1.634 6.414 1.44C7.825 1.25 9.634 1.25 11.943 1.25ZM6.613 2.926C5.335 3.098 4.564 3.426 3.995 3.995C3.425 4.565 3.098 5.335 2.926 6.614C2.752 7.914 2.75 9.622 2.75 12C2.75 14.378 2.752 16.086 2.926 17.386C3.098 18.665 3.426 19.436 3.995 20.006C4.565 20.575 5.335 20.902 6.614 21.074C7.914 21.248 9.622 21.25 12 21.25C14.378 21.25 16.086 21.248 17.386 21.074C18.665 20.902 19.436 20.574 20.006 20.005C20.575 19.435 20.902 18.665 21.074 17.386C21.248 16.086 21.25 14.378 21.25 12C21.25 9.622 21.248 7.914 21.074 6.614C20.902 5.335 20.574 4.564 20.005 3.994C19.435 3.425 18.665 3.098 17.386 2.926C16.086 2.752 14.378 2.75 12 2.75C9.622 2.75 7.913 2.752 6.613 2.926Z" fill="black"/>
</svg>
