<svg width="24" height="24" viewBox="0 0 24 24" fill="none" xmlns="http://www.w3.org/2000/svg">
<path d="M7.5358 12.2458C7.5248 14.2308 8.9808 15.4138 11.3038 14.8758V9.61481C8.9518 8.89881 7.5458 10.3478 7.5358 12.2458ZM11.3748 2.00781H14.5738V17.1508C11.5078 17.6518 8.5698 17.9698 6.4698 16.7958C3.7648 15.2828 3.5468 10.4768 5.6878 8.33581C6.7728 7.25081 8.9588 6.48581 11.3038 6.98481V2.22181C11.2978 2.12081 11.2918 2.01981 11.3748 2.00781ZM19.7638 5.34981H16.5648V2.00781H19.7638V5.34981Z" fill="black"/>
<path d="M19.7574 7.04688C19.7544 9.40287 19.7544 11.0949 19.7544 13.9579C19.6184 16.7709 19.6504 19.0099 18.6194 20.3559C18.4164 20.6219 17.9854 21.0079 17.6244 21.2799C17.3214 21.5079 16.7434 21.9709 16.4164 21.9909C16.0854 22.0119 15.2364 21.5319 14.8524 21.3509C14.3474 21.1139 13.8814 20.7979 13.3594 20.6409C14.5774 19.8869 15.7314 19.3209 16.2034 17.7969C16.6134 16.4709 16.5584 14.5499 16.5584 12.6779C16.5584 10.8289 16.5674 8.67987 16.5674 7.04787L19.7574 7.04688Z" fill="black"/>
</svg>
