<svg width="24" height="24" viewBox="0 0 24 24" fill="none" xmlns="http://www.w3.org/2000/svg">
<g clip-path="url(#clip0_84_21)">
<path d="M18.375 0H5.625C2.5184 0 0 2.5184 0 5.625V18.375C0 21.4816 2.5184 24 5.625 24H18.375C21.4816 24 24 21.4816 24 18.375V5.625C24 2.5184 21.4816 0 18.375 0Z" fill="#1E1E1E"/>
<path d="M2.25488 15.8384C2.04519 15.8384 1.86697 15.7698 1.72022 15.6327C1.57341 15.492 1.5 15.3249 1.5 15.1314C1.5 14.9345 1.57341 14.7657 1.72022 14.6249C1.86697 14.4843 2.04519 14.4139 2.25488 14.4139C2.46806 14.4139 2.64806 14.4842 2.79488 14.6249C2.94513 14.7656 3.02025 14.9344 3.02025 15.1314C3.02025 15.3249 2.94513 15.492 2.79488 15.6327C2.64806 15.7698 2.46806 15.8384 2.25488 15.8384ZM10.6375 15.7223H9.27459L5.68359 10.1613C5.59409 10.0231 5.51859 9.87641 5.45822 9.72328H5.42672C5.45466 9.88516 5.46863 10.2316 5.46863 10.7627V15.7223H4.26291V8.15625H5.715L9.18544 13.5855C9.33225 13.8106 9.42663 13.9654 9.46856 14.0498H9.48947C9.45453 13.8493 9.43706 13.5099 9.43706 13.0314V8.15625H10.6375V15.7223ZM16.5092 15.7223H12.2891V8.15625H16.3415V9.22209H13.5368V11.3642H16.1213V12.4247H13.5368V14.6618H16.5092V15.7223ZM22.5067 9.22209H20.3468V15.7223H19.0991V9.22209H16.9446V8.15625H22.5067V9.22209Z" fill="white"/>
</g>
<defs>
<clipPath id="clip0_84_21">
<rect width="24" height="24" fill="white"/>
</clipPath>
</defs>
</svg>
