<svg width="18" height="18" viewBox="0 0 18 18" fill="none" xmlns="http://www.w3.org/2000/svg">
<g clip-path="url(#clip0_66_7)">
<path d="M16.1653 2.99745C16.0972 2.99043 16.0285 2.99043 15.9603 2.99745H1.96031C1.87058 2.99884 1.78145 3.01229 1.69531 3.03745L8.92031 10.2325L16.1653 2.99745Z" fill="black"/>
<path d="M16.9088 3.69531L9.62875 10.9453C9.44139 11.1316 9.18794 11.2361 8.92375 11.2361C8.65956 11.2361 8.40611 11.1316 8.21875 10.9453L1.00375 3.75031C0.98157 3.83183 0.969809 3.91584 0.96875 4.00031V14.0003C0.96875 14.2655 1.07411 14.5199 1.26164 14.7074C1.44918 14.895 1.70353 15.0003 1.96875 15.0003H15.9688C16.234 15.0003 16.4883 14.895 16.6759 14.7074C16.8634 14.5199 16.9688 14.2655 16.9688 14.0003V4.00031C16.9648 3.89614 16.9445 3.79323 16.9088 3.69531ZM2.65375 14.0003H1.95875V13.2853L5.59375 9.68031L6.29875 10.3853L2.65375 14.0003ZM15.9587 14.0003H15.2587L11.6137 10.3853L12.3187 9.68031L15.9537 13.2853L15.9587 14.0003Z" fill="black"/>
</g>
<defs>
<clipPath id="clip0_66_7">
<rect width="18" height="18" fill="white"/>
</clipPath>
</defs>
</svg>
