<svg width="24" height="24" viewBox="0 0 24 24" fill="none" xmlns="http://www.w3.org/2000/svg">
<path d="M19.25 2.75H4.75C3.64543 2.75 2.75 3.64543 2.75 4.75V19.25C2.75 20.3546 3.64543 21.25 4.75 21.25H19.25C20.3546 21.25 21.25 20.3546 21.25 19.25V4.75C21.25 3.64543 20.3546 2.75 19.25 2.75Z" stroke="black" stroke-width="0.5" stroke-linecap="round" stroke-linejoin="round"/>
<path d="M16.375 9.75C15.8114 9.75 15.2709 9.52612 14.8724 9.1276C14.4739 8.72909 14.25 8.18859 14.25 7.625C14.25 7.06141 14.0261 6.52091 13.6276 6.1224C13.2291 5.72388 12.6886 5.5 12.125 5.5H11.875C11.3114 5.5 10.7709 5.72388 10.3724 6.1224C9.97388 6.52091 9.75 7.06141 9.75 7.625C9.75 8.18859 9.52612 8.72909 9.1276 9.1276C8.72909 9.52612 8.18859 9.75 7.625 9.75C7.06141 9.75 6.52091 9.97388 6.1224 10.3724C5.72388 10.7709 5.5 11.3114 5.5 11.875V12.125C5.5 12.6886 5.72388 13.2291 6.1224 13.6276C6.52091 14.0261 7.06141 14.25 7.625 14.25C8.18859 14.25 8.72909 14.4739 9.1276 14.8724C9.52612 15.2709 9.75 15.8114 9.75 16.375C9.75 16.9386 9.97388 17.4791 10.3724 17.8776C10.7709 18.2761 11.3114 18.5 11.875 18.5H12.125C12.6886 18.5 13.2291 18.2761 13.6276 17.8776C14.0261 17.4791 14.25 16.9386 14.25 16.375C14.25 15.8114 14.4739 15.2709 14.8724 14.8724C15.2709 14.4739 15.8114 14.25 16.375 14.25C16.9386 14.25 17.4791 14.0261 17.8776 13.6276C18.2761 13.2291 18.5 12.6886 18.5 12.125V11.875C18.5 11.3114 18.2761 10.7709 17.8776 10.3724C17.4791 9.97388 16.9386 9.75 16.375 9.75Z" stroke="black" stroke-width="0.5" stroke-linecap="round" stroke-linejoin="round"/>
<path d="M16.6871 13.5046C16.2887 13.1061 16.0648 12.5656 16.0648 12.0021C16.0648 11.4386 16.2887 10.8981 16.6871 10.4996C17.0856 10.1011 17.3094 9.56064 17.3094 8.99711C17.3094 8.43357 17.0856 7.89311 16.6871 7.49461L16.5101 7.31761C16.1116 6.91916 15.5711 6.69531 15.0076 6.69531C14.4441 6.69531 13.9036 6.91916 13.5051 7.31761C13.3078 7.51498 13.0735 7.67154 12.8157 7.77836C12.5578 7.88518 12.2815 7.94015 12.0024 7.94015C11.7233 7.94015 11.4469 7.88518 11.1891 7.77836C10.9312 7.67154 10.6969 7.51498 10.4996 7.31761C10.1011 6.91916 9.56064 6.69531 8.99711 6.69531C8.43357 6.69531 7.89311 6.91916 7.49461 7.31761L7.31761 7.49411C6.91916 7.89262 6.69531 8.43307 6.69531 8.99661C6.69531 9.56014 6.91916 10.1006 7.31761 10.4991C7.51498 10.6964 7.67154 10.9307 7.77836 11.1886C7.88518 11.4464 7.94015 11.7228 7.94015 12.0019C7.94015 12.281 7.88518 12.5573 7.77836 12.8152C7.67154 13.073 7.51498 13.3073 7.31761 13.5046C6.91916 13.9031 6.69531 14.4436 6.69531 15.0071C6.69531 15.5706 6.91916 16.1111 7.31761 16.5096L7.49411 16.6866C7.89262 17.0851 8.43307 17.3089 8.99661 17.3089C9.56014 17.3089 10.1006 17.0851 10.4991 16.6866C10.6964 16.4892 10.9307 16.3327 11.1886 16.2259C11.4464 16.119 11.7228 16.0641 12.0019 16.0641C12.281 16.0641 12.5573 16.119 12.8152 16.2259C13.073 16.3327 13.3073 16.4892 13.5046 16.6866C13.9031 17.0851 14.4436 17.3089 15.0071 17.3089C15.5706 17.3089 16.1111 17.0851 16.5096 16.6866L16.6866 16.5101C17.0851 16.1116 17.3089 15.5711 17.3089 15.0076C17.3089 14.4441 17.0851 13.9036 16.6866 13.5051" stroke="black" stroke-width="0.5" stroke-linecap="round" stroke-linejoin="round"/>
</svg>
