<svg width="16" height="16" viewBox="0 0 16 16" fill="none" xmlns="http://www.w3.org/2000/svg">
<g clip-path="url(#clip0_84_36)">
<path d="M15.5949 7.29619L8.70528 0.406938C8.30878 0.0101875 7.66528 0.0101875 7.26816 0.406938L5.83778 1.83769L7.65253 3.65244C8.07441 3.51006 8.55791 3.60556 8.89403 3.94169C9.05422 4.10202 9.16605 4.30419 9.21674 4.52509C9.26743 4.74598 9.25492 4.97669 9.18066 5.19081L10.9297 6.94006C11.3528 6.79419 11.8412 6.88844 12.1789 7.22694C12.6514 7.69906 12.6514 8.46444 12.1789 8.93681C12.0666 9.04915 11.9333 9.13827 11.7866 9.19907C11.6398 9.25987 11.4826 9.29116 11.3237 9.29116C11.1649 9.29116 11.0076 9.25987 10.8609 9.19907C10.7141 9.13827 10.5808 9.04915 10.4685 8.93681C10.2999 8.76798 10.1849 8.55305 10.1381 8.31904C10.0913 8.08504 10.1147 7.84241 10.2054 7.62169L8.57441 5.99056L8.57416 10.2832C8.6925 10.3414 8.80055 10.4186 8.89403 10.5117C9.36641 10.9838 9.36641 11.7489 8.89403 12.2221C8.42166 12.6942 7.65603 12.6942 7.18416 12.2221C6.71191 11.7491 6.67316 10.9839 7.14528 10.5117C7.26203 10.3951 7.37716 10.3069 7.50216 10.2479V5.91556C7.37716 5.85656 7.26216 5.76906 7.14516 5.65169C6.78753 5.29419 6.72066 4.76919 6.90416 4.32969L5.12503 2.54056L0.405784 7.26431C0.0089092 7.66144 0.0114092 8.30494 0.408284 8.70181L7.29903 15.5911C7.69566 15.9878 8.33966 15.9878 8.73691 15.5911L15.5944 8.73381C15.9913 8.33681 15.9917 7.69294 15.5949 7.29619Z" fill="black"/>
</g>
<defs>
<clipPath id="clip0_84_36">
<rect width="16" height="16" fill="white"/>
</clipPath>
</defs>
</svg>
