<svg width="16" height="16" viewBox="0 0 16 16" fill="none" xmlns="http://www.w3.org/2000/svg">
<g clip-path="url(#clip0_66_17)">
<path fill-rule="evenodd" clip-rule="evenodd" d="M8.00163 0.640625C3.83325 0.640625 0.453125 4.02 0.453125 8.18912C0.453125 11.5244 2.616 14.3538 5.61525 15.352C5.99238 15.422 6.13088 15.1883 6.13088 14.9889C6.13088 14.8089 6.12388 14.2143 6.12063 13.5835C4.02063 14.0401 3.5775 12.6929 3.5775 12.6929C3.23413 11.8204 2.73938 11.5884 2.73938 11.5884C2.05438 11.1199 2.791 11.1296 2.791 11.1296C3.54888 11.1828 3.94813 11.9075 3.94813 11.9075C4.62138 13.0613 5.714 12.7278 6.14475 12.535C6.2125 12.0471 6.40813 11.714 6.624 11.5255C4.94738 11.3349 3.18475 10.6875 3.18475 7.79513C3.18475 6.971 3.47975 6.29763 3.96263 5.76888C3.88413 5.57888 3.62575 4.81112 4.03562 3.77137C4.03562 3.77137 4.66938 3.5685 6.11188 4.54513C6.71413 4.37775 7.36 4.29363 8.00163 4.29075C8.64288 4.29363 9.28912 4.3775 9.8925 4.54488C11.3332 3.56825 11.9663 3.77112 11.9663 3.77112C12.3771 4.81075 12.1187 5.57862 12.0404 5.76862C12.5244 6.29737 12.8173 6.97075 12.8173 7.79488C12.8173 10.6941 11.0514 11.3324 9.3705 11.5194C9.64137 11.7536 9.88262 12.2131 9.88262 12.9173C9.88262 13.9273 9.87387 14.7401 9.87387 14.9888C9.87387 15.1896 10.0099 15.425 10.3924 15.3509C13.3899 14.3516 15.5503 11.5231 15.5503 8.18912C15.5501 4.02025 12.1704 0.640625 8.00163 0.640625Z" fill="#181616"/>
<path d="M3.31167 11.4793C3.29504 11.5168 3.23604 11.5281 3.18229 11.5025C3.12729 11.478 3.09667 11.4268 3.11442 11.3892C3.13067 11.3505 3.18979 11.3398 3.24442 11.3657C3.29942 11.3903 3.33067 11.442 3.31154 11.4795L3.31167 11.4793ZM3.61742 11.8205C3.58154 11.8538 3.51117 11.8383 3.46342 11.7855C3.41392 11.733 3.40467 11.6626 3.44129 11.6287C3.47854 11.5955 3.54679 11.6112 3.59629 11.6637C3.64554 11.717 3.65529 11.7867 3.61754 11.8206L3.61742 11.8205ZM3.91517 12.2551C3.86892 12.2873 3.79317 12.2572 3.74642 12.1901C3.70017 12.1228 3.70017 12.0422 3.74767 12.0101C3.79429 11.9778 3.86892 12.007 3.91642 12.0735C3.96242 12.1416 3.96242 12.2223 3.91517 12.2551ZM4.32279 12.6752C4.28154 12.7208 4.19329 12.7086 4.12879 12.6465C4.06292 12.5856 4.04454 12.499 4.08592 12.4535C4.12792 12.4077 4.21654 12.4205 4.28142 12.4822C4.34729 12.543 4.36717 12.6297 4.32304 12.6751L4.32279 12.6752ZM4.88529 12.9191C4.86692 12.9782 4.78217 13.0051 4.69654 12.9798C4.61117 12.954 4.55529 12.8848 4.57279 12.8251C4.59029 12.7655 4.67567 12.7376 4.76179 12.7645C4.84717 12.7902 4.90304 12.859 4.88529 12.9191ZM5.50317 12.9642C5.50529 13.0265 5.43279 13.078 5.34317 13.0792C5.25279 13.0813 5.17967 13.0308 5.17879 12.9696C5.17879 12.9067 5.24979 12.8558 5.34004 12.8541C5.42967 12.8525 5.50329 12.9025 5.50329 12.9641L5.50317 12.9642ZM6.07792 12.8665C6.08867 12.9271 6.02629 12.9895 5.93717 13.0061C5.84967 13.0223 5.76842 12.9846 5.75717 12.9245C5.74642 12.8622 5.80992 12.7998 5.89742 12.7837C5.98667 12.7683 6.06667 12.8048 6.07792 12.8665Z" fill="#181616"/>
</g>
<defs>
<clipPath id="clip0_66_17">
<rect width="16" height="16" fill="white"/>
</clipPath>
</defs>
</svg>
