<svg width="24" height="24" viewBox="0 0 24 24" fill="none" xmlns="http://www.w3.org/2000/svg">
<path d="M6.34425 4.94149C6.43723 5.03437 6.51098 5.14466 6.56131 5.26605C6.61163 5.38745 6.63754 5.51758 6.63754 5.64899C6.63754 5.78041 6.61163 5.91054 6.56131 6.03193C6.51098 6.15333 6.43723 6.26362 6.34425 6.35649C4.84369 7.85731 4.0007 9.8927 4.0007 12.015C4.0007 14.1373 4.84369 16.1727 6.34425 17.6735C6.43976 17.7657 6.51594 17.8761 6.56835 17.9981C6.62076 18.1201 6.64835 18.2513 6.6495 18.3841C6.65065 18.5169 6.62535 18.6486 6.57507 18.7714C6.52479 18.8943 6.45054 19.006 6.35664 19.0999C6.26275 19.1938 6.1511 19.268 6.0282 19.3183C5.90531 19.3686 5.77363 19.3939 5.64085 19.3927C5.50807 19.3916 5.37685 19.364 5.25485 19.3116C5.13284 19.2592 5.0225 19.183 4.93025 19.0875C1.02325 15.1815 1.02325 8.84749 4.93025 4.94149C5.11778 4.75402 5.37209 4.64871 5.63725 4.64871C5.90241 4.64871 6.15672 4.75402 6.34425 4.94149ZM19.0762 4.94149C22.9822 8.84849 22.9822 15.1815 19.0762 19.0875C18.8887 19.2751 18.6344 19.3806 18.3691 19.3807C18.1038 19.3808 17.8494 19.2755 17.6617 19.088C17.4741 18.9005 17.3686 18.6461 17.3685 18.3808C17.3685 18.1156 17.4737 17.8611 17.6612 17.6735C19.1618 16.1727 20.0048 14.1373 20.0048 12.015C20.0048 9.8927 19.1618 7.85731 17.6612 6.35649C17.4736 6.16885 17.3682 5.91436 17.3682 5.64899C17.3682 5.38363 17.4736 5.12913 17.6612 4.94149C17.8489 4.75385 18.1034 4.64844 18.3687 4.64844C18.6341 4.64844 18.8886 4.75385 19.0762 4.94149ZM9.31125 7.81549C9.49872 8.00302 9.60404 8.25733 9.60404 8.52249C9.60404 8.78766 9.49872 9.04197 9.31125 9.22949C8.9472 9.5935 8.65842 10.0257 8.4614 10.5013C8.26437 10.9769 8.16297 11.4867 8.16297 12.0015C8.16297 12.5163 8.26437 13.0261 8.4614 13.5017C8.65842 13.9773 8.9472 14.4095 9.31125 14.7735C9.40409 14.8664 9.47773 14.9767 9.52795 15.0981C9.57817 15.2194 9.604 15.3495 9.60395 15.4808C9.60391 15.6122 9.57799 15.7422 9.52768 15.8636C9.47737 15.9849 9.40366 16.0951 9.31075 16.188C9.21784 16.2808 9.10755 16.3545 8.98618 16.4047C8.86482 16.4549 8.73474 16.4807 8.6034 16.4807C8.47205 16.4807 8.34199 16.4547 8.22066 16.4044C8.09933 16.3541 7.98909 16.2804 7.89625 16.1875C6.78608 15.0773 6.16239 13.5715 6.16239 12.0015C6.16239 10.4314 6.78608 8.9257 7.89625 7.81549C7.98912 7.72252 8.09941 7.64876 8.22081 7.59843C8.34221 7.54811 8.47233 7.52221 8.60375 7.52221C8.73516 7.52221 8.86529 7.54811 8.98669 7.59843C9.10809 7.64876 9.21838 7.72252 9.31125 7.81549ZM16.2692 7.81549C17.3794 8.9257 18.0031 10.4314 18.0031 12.0015C18.0031 13.5715 17.3794 15.0773 16.2692 16.1875C16.0806 16.3697 15.828 16.4704 15.5658 16.4682C15.3037 16.4659 15.0528 16.3607 14.8674 16.1753C14.682 15.9899 14.5769 15.7391 14.5746 15.4769C14.5723 15.2147 14.6731 14.9621 14.8552 14.7735C15.2193 14.4095 15.5081 13.9773 15.7051 13.5017C15.9021 13.0261 16.0035 12.5163 16.0035 12.0015C16.0035 11.4867 15.9021 10.9769 15.7051 10.5013C15.5081 10.0257 15.2193 9.5935 14.8552 9.22949C14.6731 9.04089 14.5723 8.78829 14.5746 8.52609C14.5769 8.2639 14.682 8.01308 14.8674 7.82768C15.0528 7.64227 15.3037 7.5371 15.5658 7.53482C15.828 7.53254 16.0806 7.63334 16.2692 7.81549ZM12.0832 10.5855C12.4811 10.5855 12.8626 10.7435 13.1439 11.0248C13.4252 11.3061 13.5832 11.6877 13.5832 12.0855C13.5832 12.4833 13.4252 12.8648 13.1439 13.1462C12.8626 13.4275 12.4811 13.5855 12.0832 13.5855C11.6854 13.5855 11.3039 13.4275 11.0226 13.1462C10.7413 12.8648 10.5832 12.4833 10.5832 12.0855C10.5832 11.6877 10.7413 11.3061 11.0226 11.0248C11.3039 10.7435 11.6854 10.5855 12.0832 10.5855Z" fill="black"/>
</svg>
