<svg width="24" height="24" viewBox="0 0 24 24" fill="none" xmlns="http://www.w3.org/2000/svg">
<path d="M0 17.1194H0.795375V13.9793L2.0265 16.7165C2.17144 17.0483 2.37 17.1648 2.76038 17.1648C3.15075 17.1648 3.34125 17.0483 3.48619 16.7165L4.71731 13.9793V17.1192H5.51269V13.9846C5.51269 13.6784 5.39044 13.5305 5.13769 13.4543C4.53337 13.2661 4.12838 13.4286 3.94463 13.8366L2.73694 16.5385L1.56731 13.8366C1.39163 13.4286 0.978563 13.2661 0.375 13.4543C0.12225 13.5305 0 13.6784 0 13.9846L0 17.1194ZM6.17438 14.5632H6.969V16.2933C6.96169 16.387 6.999 16.6075 7.43475 16.6148H9.16406V14.5544H9.96094C9.96469 14.5544 9.95944 17.3639 9.95944 17.3757C9.96375 18.0685 9.10031 18.2187 8.70187 18.2305H6.19125V17.6958L8.70637 17.695C9.21825 17.6416 9.1575 17.3866 9.1575 17.3016V17.093H7.46775C6.68119 17.0856 6.18094 16.7421 6.17438 16.3473C6.17363 16.3115 6.19125 14.5808 6.17438 14.5632ZM10.5733 17.1194H12.8599C13.1272 17.1194 13.3873 17.063 13.5938 16.9664C13.938 16.8089 14.1056 16.5944 14.1056 16.3139V15.733C14.1056 15.5037 13.9151 15.2892 13.5401 15.1471C13.3416 15.0702 13.0963 15.0299 12.8597 15.0299H11.8958C11.5749 15.0299 11.4219 14.9331 11.3839 14.7194C11.3766 14.6937 11.3766 14.6733 11.3766 14.6476V14.2857C11.3766 14.2653 11.3766 14.2446 11.3839 14.2191C11.4219 14.0566 11.5061 14.0105 11.7889 13.9848L11.8658 13.9797H14.1362V13.4502H11.904C11.5832 13.4502 11.4148 13.4706 11.2616 13.5162C10.7878 13.6641 10.5812 13.8985 10.5812 14.3065V14.7702C10.5812 15.1268 10.9862 15.433 11.6666 15.5041C11.7435 15.5091 11.8196 15.5144 11.8959 15.5144H12.7221C12.7528 15.5144 12.7828 15.5144 12.8063 15.5195C13.0583 15.5399 13.1651 15.586 13.242 15.6777C13.2816 15.7143 13.3042 15.7664 13.3027 15.8198V16.2843C13.3027 16.34 13.2647 16.4118 13.1886 16.4725C13.1197 16.534 13.0048 16.5743 12.8524 16.5846L12.7682 16.5897H10.5733V17.1194ZM19.0665 16.1965C19.0665 16.7421 19.4722 17.0476 20.2896 17.1091C20.3664 17.1141 20.4426 17.1194 20.5196 17.1194H22.5917V16.5891H20.5043C20.0378 16.5891 19.8619 16.472 19.8619 16.1915V13.4491H19.0673V16.1963L19.0665 16.1965ZM14.6134 16.2243V14.3339C14.6134 13.8541 14.9511 13.5627 15.6174 13.471C15.6885 13.4608 15.7603 13.4556 15.8321 13.4556H17.3409C17.4178 13.4556 17.4866 13.4607 17.5637 13.471C18.2302 13.5625 18.5672 13.8541 18.5672 14.3339V16.2243C18.5672 16.6139 18.4243 16.822 18.0941 16.9581L18.8779 17.665H17.9542L17.3207 17.093L16.6828 17.1333H15.8325C15.6745 17.1328 15.5172 17.1106 15.3652 17.0673C14.8592 16.9296 14.6138 16.6638 14.6138 16.2243H14.6134ZM15.4717 16.1781C15.4717 16.2038 15.4798 16.2293 15.4871 16.2603C15.5332 16.48 15.7406 16.6023 16.0539 16.6023H16.7762L16.1126 16.0032H17.0363L17.6149 16.5261C17.7217 16.469 17.7921 16.3825 17.8162 16.2706C17.8243 16.2449 17.8243 16.2194 17.8243 16.1937V14.381C17.8243 14.3605 17.8243 14.3348 17.8162 14.3091C17.7701 14.1048 17.5635 13.9876 17.2575 13.9876H16.0541C15.7018 13.9876 15.4719 14.1406 15.4719 14.381L15.4717 16.1781ZM23.2911 12.5695C22.8026 12.5564 22.4289 12.6018 22.1096 12.7366C22.0189 12.7746 21.8738 12.7754 21.8591 12.889C21.909 12.9417 21.9171 13.0201 21.9566 13.0838C22.0327 13.2076 22.1617 13.3724 22.2767 13.4588C22.4012 13.5541 22.5308 13.6551 22.6656 13.7371C22.9043 13.8828 23.1716 13.9664 23.4024 14.1121C23.538 14.1985 23.6726 14.3069 23.8052 14.4044C23.8704 14.452 23.9143 14.5274 24 14.5574V14.5435C23.9554 14.4863 23.9436 14.408 23.9025 14.3487L23.7216 14.1678C23.5451 13.9334 23.3209 13.7275 23.0822 13.5561C22.8917 13.4198 22.467 13.2353 22.3871 13.0141L22.3732 13.0002C22.5081 12.9856 22.6663 12.9365 22.7901 12.9035C22.9995 12.847 23.1862 12.8616 23.4017 12.806L23.694 12.7218V12.6668C23.5849 12.5547 23.5073 12.4068 23.3878 12.305C23.0773 12.0406 22.7374 11.7755 22.3873 11.5542C22.1933 11.432 21.9538 11.3528 21.7479 11.2488C21.6791 11.2137 21.5574 11.1961 21.5113 11.1374C21.4037 10.9998 21.345 10.8254 21.2616 10.6649C21.0835 10.3183 20.9167 9.96603 20.7613 9.6087C20.6559 9.36776 20.5869 9.12964 20.4551 8.91364C19.8246 7.87583 19.1449 7.24958 18.0922 6.63439C17.8689 6.50333 17.5986 6.45195 17.3145 6.38464L16.8553 6.35689C16.7623 6.31733 16.6656 6.20314 16.5778 6.1482C16.2293 5.9277 15.3349 5.44883 15.0763 6.07864C14.9137 6.47633 15.3203 6.86445 15.4659 7.06601C15.5678 7.20739 15.6988 7.36564 15.7714 7.52445C15.8197 7.62851 15.8278 7.73314 15.8689 7.84376C15.9699 8.1162 16.0579 8.41208 16.1889 8.66408C16.2549 8.79158 16.3273 8.92564 16.4109 9.03908C16.4621 9.10864 16.5501 9.14014 16.5639 9.24776C16.4783 9.36795 16.4732 9.55395 16.4248 9.7062C16.2073 10.391 16.2893 11.242 16.6058 11.7496C16.7025 11.9048 16.9309 12.2388 17.2451 12.1107C17.5198 11.9986 17.4583 11.6523 17.5367 11.3461C17.5551 11.2773 17.544 11.2259 17.5785 11.1798V11.1936L17.829 11.6939C18.0142 11.992 18.3424 12.3033 18.6208 12.5135C18.7657 12.6226 18.8794 12.8116 19.0661 12.8753V12.8607H19.0522C19.0157 12.805 18.9593 12.7816 18.9131 12.7362C18.804 12.6293 18.6831 12.4968 18.5938 12.3743C18.3403 12.0308 18.1162 11.6543 17.9126 11.2625C17.8151 11.0757 17.7302 10.8691 17.6483 10.6788C17.6168 10.6055 17.6175 10.4943 17.5515 10.4568C17.4615 10.5959 17.3289 10.7088 17.2592 10.8736C17.1478 11.1365 17.1339 11.458 17.0921 11.7906L17.0644 11.8045C16.8711 11.7576 16.8028 11.5585 16.7312 11.3877C16.5488 10.9555 16.5152 10.259 16.6755 9.7617C16.7166 9.63289 16.9041 9.22695 16.8279 9.10845C16.7921 8.98976 16.6727 8.92095 16.6059 8.8302C16.5187 8.70851 16.4441 8.57821 16.3834 8.44133C16.2347 8.10364 16.1651 7.72583 16.0084 7.38514C15.9337 7.22183 15.807 7.05701 15.7029 6.91208C15.5873 6.75176 15.4583 6.63383 15.369 6.43958C15.3375 6.37076 15.2944 6.26014 15.3412 6.18908C15.3559 6.14145 15.3778 6.12176 15.4247 6.10639C15.5053 6.04414 15.7301 6.12683 15.8136 6.16133C16.0369 6.25433 16.2231 6.34226 16.4119 6.46751C16.5019 6.52751 16.5936 6.64395 16.7034 6.6762H16.8287C17.0242 6.72083 17.2433 6.68933 17.4264 6.74501C17.7495 6.84308 18.0396 6.99626 18.3017 7.16258C19.1029 7.66789 19.7578 8.38789 20.2059 9.24701C20.2785 9.38539 20.3092 9.5172 20.373 9.66383C20.5012 9.9597 20.6623 10.2644 20.7898 10.5537C20.9173 10.843 21.0411 11.1338 21.2205 11.374C21.315 11.5 21.6804 11.5673 21.846 11.6376C21.9624 11.6868 22.1529 11.738 22.2628 11.8047C22.4738 11.9315 22.6774 12.0822 22.8752 12.2215C22.9732 12.2918 23.2766 12.4443 23.292 12.5693L23.2911 12.5695ZM17.0779 7.27414C16.9938 7.27278 16.9099 7.28211 16.8281 7.30189V7.31576H16.842C16.8904 7.41608 16.9761 7.48058 17.0361 7.56626L17.1752 7.85783L17.1891 7.8447C17.2755 7.78395 17.3143 7.68645 17.3143 7.53851C17.2793 7.50195 17.2748 7.45658 17.2448 7.41326C17.2052 7.35533 17.1285 7.32326 17.0779 7.27414Z" fill="black"/>
</svg>
