<svg width="24" height="24" viewBox="0 0 24 24" fill="none" xmlns="http://www.w3.org/2000/svg">
<g clip-path="url(#clip0_84_19)">
<path d="M14.2475 0.18L15.1475 0.38L15.8775 0.64L16.4675 0.94L16.9175 1.26L17.2575 1.6L17.5075 1.94L17.6675 2.27L17.7675 2.57L17.8075 2.83L17.8275 3.03L17.8175 3.16V8.5L17.7675 9.13L17.6375 9.68L17.4275 10.14L17.1675 10.52L16.8675 10.83L16.5375 11.08L16.1875 11.27L15.8375 11.41L15.5075 11.51L15.2075 11.58L14.9475 11.62L14.7375 11.64H8.7675L8.0775 11.69L7.4875 11.83L6.9875 12.05L6.5775 12.32L6.2475 12.64L5.9775 12.99L5.7775 13.35L5.6275 13.72L5.5275 14.07L5.4575 14.39L5.4175 14.66L5.3975 14.87V17.93H3.1675L2.9575 17.9L2.6775 17.83L2.3575 17.71L2.0075 17.53L1.6475 17.27L1.2875 16.91L0.9375 16.45L0.6175 15.86L0.3375 15.13L0.1275 14.25L-0.0125 13.2L-0.0625 11.97L-0.0025 10.75L0.1575 9.71L0.3975 8.84L0.7175 8.13L1.0775 7.56L1.4775 7.12L1.8975 6.79L2.3175 6.55L2.7175 6.39L3.0775 6.29L3.3975 6.24L3.6375 6.23H3.7975L3.8575 6.24H12.0175V5.41H6.1775L6.1675 2.66L6.1475 2.29L6.1975 1.95L6.3075 1.64L6.4775 1.36L6.7275 1.1L7.0375 0.87L7.4175 0.67L7.8575 0.49L8.3675 0.34L8.9475 0.22L9.5875 0.12L10.2975 0.06L11.0675 0.02L11.9075 0L13.1775 0.05L14.2475 0.18ZM7.9475 2.16L7.7175 2.49L7.6375 2.9L7.7175 3.31L7.9475 3.65L8.2775 3.87L8.6875 3.96L9.0975 3.87L9.4275 3.65L9.6575 3.31L9.7375 2.9L9.6575 2.49L9.4275 2.16L9.0975 1.94L8.6875 1.85L8.2775 1.94L7.9475 2.16ZM21.0375 6.11L21.3175 6.17L21.6375 6.29L21.9875 6.47L22.3475 6.74L22.7075 7.09L23.0575 7.56L23.3775 8.15L23.6575 8.88L23.8675 9.76L24.0075 10.8L24.0575 12.03L23.9975 13.26L23.8375 14.3L23.5975 15.16L23.2775 15.87L22.9175 16.44L22.5175 16.89L22.0975 17.22L21.6775 17.46L21.2775 17.62L20.9175 17.71L20.5975 17.76L20.3575 17.78L20.1975 17.77H11.9775V18.59H17.8175L17.8275 21.35L17.8475 21.71L17.7975 22.05L17.6875 22.36L17.5175 22.65L17.2675 22.9L16.9575 23.14L16.5775 23.34L16.1375 23.51L15.6275 23.66L15.0475 23.79L14.4075 23.88L13.6975 23.95L12.9275 23.99L12.0875 24L10.8175 23.96L9.7475 23.82L8.8475 23.62L8.1175 23.37L7.5275 23.07L7.0775 22.74L6.7375 22.4L6.4875 22.06L6.3275 21.73L6.2275 21.43L6.1875 21.18L6.1675 20.98L6.1775 20.85V15.51L6.2275 14.87L6.3575 14.33L6.5675 13.87L6.8275 13.49L7.1275 13.17L7.4575 12.93L7.8075 12.73L8.1575 12.59L8.4875 12.49L8.7875 12.43L9.0475 12.39L9.2575 12.37L9.3875 12.36H15.2275L15.9175 12.31L16.5075 12.17L17.0075 11.96L17.4175 11.68L17.7475 11.36L18.0175 11.01L18.2175 10.65L18.3675 10.29L18.4675 9.94L18.5375 9.62L18.5775 9.34L18.5975 9.13V6.07H20.6875L20.8275 6.08L21.0375 6.11ZM14.5675 20.36L14.3375 20.69L14.2575 21.1L14.3375 21.51L14.5675 21.84L14.8975 22.07L15.3075 22.15L15.7175 22.07L16.0475 21.84L16.2775 21.51L16.3575 21.1L16.2775 20.69L16.0475 20.36L15.7175 20.13L15.3075 20.05L14.8975 20.13L14.5675 20.36Z" fill="black"/>
</g>
<defs>
<clipPath id="clip0_84_19">
<rect width="24" height="24" fill="white"/>
</clipPath>
</defs>
</svg>
