<svg width="24" height="24" viewBox="0 0 24 24" fill="none" xmlns="http://www.w3.org/2000/svg">
<path d="M8 12C8 6.477 9.79 2 12 2C14.21 2 16 6.477 16 12C16 17.523 14.21 22 12 22C9.79 22 8 17.523 8 12Z" stroke="black" stroke-width="1.5" stroke-linecap="round" stroke-linejoin="round"/>
<path d="M9.97471 8.62003C14.8167 5.85803 19.6487 5.17003 20.7667 7.08303C21.8847 8.99603 18.8667 12.786 14.0247 15.547C9.18271 18.308 4.35071 18.997 3.23271 17.083C2.11471 15.17 5.13271 11.382 9.97471 8.62003Z" stroke="black" stroke-width="1.5" stroke-linecap="round" stroke-linejoin="round"/>
<path d="M14.0247 8.62003C18.8667 11.38 21.8847 15.17 20.7667 17.083C19.6487 18.997 14.8167 18.309 9.97471 15.547C5.13271 12.785 2.11471 8.99703 3.23271 7.08303C4.34971 5.17003 9.18271 5.85803 14.0247 8.62003Z" stroke="black" stroke-width="1.5" stroke-linecap="round" stroke-linejoin="round"/>
<path d="M13.5 12C13.5 12.3978 13.342 12.7794 13.0607 13.0607C12.7794 13.342 12.3978 13.5 12 13.5C11.6022 13.5 11.2206 13.342 10.9393 13.0607C10.658 12.7794 10.5 12.3978 10.5 12C10.5 11.6022 10.658 11.2206 10.9393 10.9393C11.2206 10.658 11.6022 10.5 12 10.5C12.3978 10.5 12.7794 10.658 13.0607 10.9393C13.342 11.2206 13.5 11.6022 13.5 12Z" stroke="black" stroke-width="1.5" stroke-linecap="round" stroke-linejoin="round"/>
</svg>
