<svg width="15" height="15" viewBox="0 0 15 15" fill="none" xmlns="http://www.w3.org/2000/svg">
<g clip-path="url(#clip0_118_2)">
<path d="M2.71715 1H0.500148C0.412171 0.999974 0.325745 1.02316 0.249596 1.06722C0.173447 1.11128 0.110271 1.17465 0.0664472 1.25094C0.0226238 1.32722 -0.000295772 1.41372 2.88179e-06 1.5017C0.000301536 1.58967 0.0238078 1.67601 0.0681482 1.752L7.06815 13.752C7.11217 13.8275 7.17522 13.8902 7.25102 13.9338C7.32682 13.9773 7.41272 14.0003 7.50015 14.0003C7.58757 14.0003 7.67347 13.9773 7.74927 13.9338C7.82508 13.8902 7.88813 13.8275 7.93215 13.752L14.9321 1.752C14.9765 1.67601 15 1.58967 15.0003 1.5017C15.0006 1.41372 14.9777 1.32722 14.9338 1.25094C14.89 1.17465 14.8268 1.11128 14.7507 1.06722C14.6746 1.02316 14.5881 0.999974 14.5001 1H12.2831L7.50015 8.972L2.71715 1Z" fill="black"/>
<path d="M11.1168 1H8.18981L7.49981 2.382L6.80881 1H3.88281L7.49981 7.028L11.1168 1Z" fill="black"/>
</g>
<defs>
<clipPath id="clip0_118_2">
<rect width="15" height="15" fill="white"/>
</clipPath>
</defs>
</svg>
